<?xml version="1.0" encoding="UTF-8"?>
<svg width="137px" height="25px" viewBox="0 0 137 25" version="1.1" xmlns="http://www.w3.org/2000/svg" xmlns:xlink="http://www.w3.org/1999/xlink">
    <!-- Generator: Sketch 58 (84663) - https://sketch.com -->
    <title>inmagine-logo</title>
    <desc>Created with Sketch.</desc>
    <g id="Inmagine-Sign-In-Sign-Up-v3" stroke="none" stroke-width="1" fill="none" fill-rule="evenodd">
        <g id="Sign-Up-Page-Final" transform="translate(-419.000000, -152.000000)" fill="#FFFFFF">
            <path d="M423.411765,152 L423.411765,177 L419,177 L419,152 L423.411765,152 Z M555.764706,152 L555.764706,156.608317 L548.267901,156.608317 L548.267901,162.195842 L553.633755,162.195842 L553.633625,166.804158 L548.267901,166.804158 L548.267901,172.391683 L555.764706,172.391683 L555.764706,177 L544,177 L544,152 L555.764706,152 Z M526.834201,152 L531.018867,164.499578 L531.018867,152 L535.176471,152 L535.176471,177 L531.018994,177 L526.834,164.5 L526.834201,177 L522.676471,177 L522.676471,152 L526.834201,152 Z M434.922521,152 L439.107145,164.499578 L439.107145,152 L443.264706,152 L443.264706,177 L439.107145,177 L434.922,164.5 L434.922521,177 L430.764706,177 L430.764706,152 L434.922521,152 Z M454.345926,152 L458.338372,163.109421 L462.330817,152 L466.794118,152 L466.794118,177 L462.330817,177 L462.33,164.5 L459.494367,172.391401 L457.182377,172.391401 L454.345,164.5 L454.345926,177 L449.882353,177 L449.882353,152 L454.345926,152 Z M484.205605,164.5 L486.647059,177 L482.490364,177 L480.764706,168.164122 L484.205605,164.5 Z M482.870919,152 L484.441176,159.263993 L480.475937,163.07886 L477.466582,177 L472.676471,177 L478.080954,152 L482.870919,152 Z M516.058824,162.294118 L516.058824,177 L511.647059,177 L511.647059,166.907612 L516.058824,162.294118 Z M500.393074,152.067963 C502.875174,152.067963 504.900512,154.012427 505.013581,156.453346 L505.018556,156.66375 L505.018838,157.569789 L500.398017,162.165576 L500.398017,157.797458 C500.398017,157.213076 499.953446,156.731955 499.382335,156.670403 L499.258133,156.66375 L496.907053,156.66375 C496.319488,156.66375 495.835746,157.105912 495.773858,157.673929 L495.767169,157.797458 L495.767169,171.270492 C495.767169,171.854874 496.21174,172.335995 496.782851,172.397547 L496.907053,172.404199 L499.258133,172.404199 C499.845699,172.404199 500.329441,171.962037 500.391328,171.39402 L500.398017,171.270492 L500.398017,167.486362 L497.498459,167.486362 L502.119281,162.890576 L505.018838,162.890576 L505.018838,172.404199 L505.013581,172.614603 C504.903837,174.983731 502.992658,176.885176 500.610861,176.994977 L500.393074,176.999986 L495.772253,176.999986 C493.290016,176.999986 491.264675,175.055523 491.151476,172.614603 L491.146489,172.404199 L491.146348,156.66375 L491.151476,156.453346 C491.261345,154.084219 493.172532,152.182773 495.554455,152.072973 L495.772253,152.067963 L500.393074,152.067963 Z M516.058824,152 L516.058824,156.779266 L511.647059,161.558824 L511.647059,152 L516.058824,152 Z" id="inmagine-logo"></path>
        </g>
    </g>
</svg>